<?xml version="1.0" standalone="no"?>
<!DOCTYPE svg PUBLIC "-//W3C//DTD SVG 20010904//EN"
 "http://www.w3.org/TR/2001/REC-SVG-20010904/DTD/svg10.dtd">
<svg version="1.0" xmlns="http://www.w3.org/2000/svg"
 width="1280.000000pt" height="981.000000pt" viewBox="0 0 1280.000000 981.000000"
 preserveAspectRatio="xMidYMid meet">
<metadata>
Created by potrace 1.15, written by Peter Selinger 2001-2017
</metadata>
<g transform="translate(0.000000,981.000000) scale(0.100000,-0.100000)"
fill="#000000" stroke="none">
<path d="M1525 9778 c5 -32 55 -406 55 -414 0 -2 -252 -4 -560 -4 l-560 0 0
-760 0 -760 -230 0 -230 0 0 -2935 0 -2935 230 0 230 0 2 -753 3 -752 543 0
c397 0 542 -3 542 -11 0 -14 -47 -374 -55 -422 l-6 -32 4881 0 4880 0 0 230 0
230 558 2 557 3 3 753 2 752 215 0 215 0 -2 2936 -3 2936 -212 -2 -213 -1 0
761 0 760 -554 0 c-305 0 -557 3 -559 8 -2 4 8 99 24 212 15 113 28 211 29
218 0 9 -986 12 -4895 12 l-4896 0 6 -32z m8830 -925 c40 -391 205 -814 442
-1131 72 -97 255 -285 353 -365 178 -144 423 -278 644 -353 l116 -39 -2 -2074
-3 -2075 -98 -28 c-257 -74 -472 -185 -669 -345 -100 -81 -284 -277 -357 -379
-140 -198 -249 -414 -327 -649 -47 -143 -90 -336 -100 -445 l-7 -70 -3947 0
-3947 0 -7 68 c-22 223 -108 509 -220 737 -116 235 -238 404 -431 600 -250
254 -505 409 -805 489 l-85 23 0 2073 0 2072 85 25 c125 36 304 113 429 183
575 327 968 941 1053 1648 l12 102 3932 0 3932 0 7 -67z"/>
</g>
</svg>
